{
  "accessors": [
    {
      "bufferView": 3,
      "componentType": 5126,
      "count": 158,
      "max": [
        6.2746195793151855,
        27.062650680541992,
        5.1090898513793945
      ],
      "min": [
        -6.2746195793151855,
        24.028146743774414,
        2.1428637504577637
      ],
      "type": "VEC3"
    },
    {
      "bufferView": 3,
      "byteOffset": 1896,
      "componentType": 5126,
      "count": 158,
      "max": [
        0.9704612493515015,
        0.9986956715583801,
        0.996733546257019
      ],
      "min": [
        -0.9704612493515015,
        -0.9986956715583801,
        -0.9751812815666199
      ],
      "type": "VEC3"
    },
    {
      "bufferView": 2,
      "componentType": 5126,
      "count": 158,
      "max": [
        0.9716890454292297,
        0.9998189806938171
      ],
      "min": [
        0.0001811003894545138,
        0.0001811003894545138
      ],
      "type": "VEC2"
    },
    {
      "bufferView": 1,
      "componentType": 5125,
      "count": 816,
      "type": "SCALAR"
    },
    {
      "bufferView": 3,
      "byteOffset": 3792,
      "componentType": 5126,
      "count": 1876,
      "max": [
        21.30373764038086,
        33.1419792175293,
        10.508320808410645
      ],
      "min": [
        -21.30373764038086,
        0.0846426710486412,
        -14.008635520935059
      ],
      "type": "VEC3"
    },
    {
      "bufferView": 3,
      "byteOffset": 26304,
      "componentType": 5126,
      "count": 1876,
      "max": [
        1.0,
        0.9999978542327881,
        1.0
      ],
      "min": [
        -1.0,
        -0.9995248317718506,
        -1.0
      ],
      "type": "VEC3"
    },
    {
      "bufferView": 2,
      "byteOffset": 1264,
      "componentType": 5126,
      "count": 1876,
      "max": [
        0.999427855014801,
        0.9826145172119141
      ],
      "min": [
        0.0005720717017538846,
        0.0005720717017538846
      ],
      "type": "VEC2"
    },
    {
      "bufferView": 1,
      "byteOffset": 3264,
      "componentType": 5125,
      "count": 5244,
      "type": "SCALAR"
    },
    {
      "bufferView": 5,
      "componentType": 5126,
      "count": 27,
      "max": [
        13.93285846710205,
        0.002158154733479023,
        1.8319584341952577e-05,
        0.0,
        0.0021093718241900206,
        13.932859420776367,
        0.13932889699935913,
        0.0,
        0.0006262040697038174,
        0.1393333375453949,
        13.932860374450684,
        0.0,
        0.7984887361526489,
        1.1103142499923706,
        0.9563724398612976,
        1.0
      ],
      "min": [
        -0.13932907581329346,
        -0.002158154733479023,
        -3.101464926658082e-06,
        0.0,
        -0.0021093604154884815,
        -0.13620446622371674,
        -0.03152165561914444,
        0.0,
        -0.0005972728249616921,
        -0.05891541391611099,
        -0.1362256407737732,
        0.0,
        -0.7983756065368652,
        -2.892038345336914,
        -0.49353712797164917,
        1.0
      ],
      "type": "MAT4"
    },
    {
      "bufferView": 0,
      "componentType": 5123,
      "count": 158,
      "type": "VEC4"
    },
    {
      "bufferView": 4,
      "componentType": 5126,
      "count": 158,
      "max": [
        1.0,
        0.0,
        0.0,
        0.0
      ],
      "min": [
        1.0,
        0.0,
        0.0,
        0.0
      ],
      "type": "VEC4"
    },
    {
      "bufferView": 0,
      "byteOffset": 1264,
      "componentType": 5123,
      "count": 1876,
      "type": "VEC4"
    },
    {
      "bufferView": 4,
      "byteOffset": 2528,
      "componentType": 5126,
      "count": 1876,
      "max": [
        1.0,
        0.5,
        0.3084883987903595,
        0.051879845559597015
      ],
      "min": [
        0.36664876341819763,
        0.0,
        0.0,
        0.0
      ],
      "type": "VEC4"
    }
  ],
  "asset": {
    "extras": {
      "author": "NonoSquare11 (https://sketchfab.com/NonoSquare11)",
      "license": "CC-BY-4.0 (http://creativecommons.org/licenses/by/4.0/)",
      "source": "https://sketchfab.com/3d-models/uganda-knuckles-4038bc3ae5cf4fe0bc93d194883ec151",
      "title": "Uganda-knuckles"
    },
    "generator": "Sketchfab-13.21.0",
    "version": "2.0"
  },
  "bufferViews": [
    {
      "buffer": 0,
      "byteLength": 16272,
      "byteStride": 8,
      "name": "shortBufferViews",
      "target": 34962
    },
    {
      "buffer": 0,
      "byteLength": 24240,
      "byteOffset": 16272,
      "name": "floatBufferViews",
      "target": 34963
    },
    {
      "buffer": 0,
      "byteLength": 16272,
      "byteOffset": 40512,
      "byteStride": 8,
      "name": "floatBufferViews",
      "target": 34962
    },
    {
      "buffer": 0,
      "byteLength": 48816,
      "byteOffset": 56784,
      "byteStride": 12,
      "name": "floatBufferViews",
      "target": 34962
    },
    {
      "buffer": 0,
      "byteLength": 32544,
      "byteOffset": 105600,
      "byteStride": 16,
      "name": "floatBufferViews",
      "target": 34962
    },
    {
      "buffer": 0,
      "byteLength": 1728,
      "byteOffset": 138144,
      "name": "floatBufferViews"
    }
  ],
  "buffers": [
    {
      "byteLength": 139872,
      "uri": "scene.bin"
    }
  ],
  "images": [
    {
      "uri": "textures/Material.001_baseColor.png"
    },
    {
      "uri": "textures/Material_baseColor.png"
    }
  ],
  "materials": [
    {
      "doubleSided": true,
      "name": "Material.001",
      "pbrMetallicRoughness": {
        "baseColorTexture": {
          "index": 0
        },
        "metallicFactor": 0.0,
        "roughnessFactor": 0.8048289688856956
      }
    },
    {
      "doubleSided": true,
      "name": "Material",
      "pbrMetallicRoughness": {
        "baseColorTexture": {
          "index": 1
        },
        "metallicFactor": 0.0,
        "roughnessFactor": 0.8239417257461427
      }
    }
  ],
  "meshes": [
    {
      "name": "0",
      "primitives": [
        {
          "attributes": {
            "JOINTS_0": 9,
            "NORMAL": 1,
            "POSITION": 0,
            "TEXCOORD_0": 2,
            "WEIGHTS_0": 10
          },
          "indices": 3,
          "material": 0,
          "mode": 4
        }
      ]
    },
    {
      "name": "1",
      "primitives": [
        {
          "attributes": {
            "JOINTS_0": 11,
            "NORMAL": 5,
            "POSITION": 4,
            "TEXCOORD_0": 6,
            "WEIGHTS_0": 12
          },
          "indices": 7,
          "material": 1,
          "mode": 4
        }
      ]
    }
  ],
  "nodes": [
    {
      "children": [
        1
      ],
      "matrix": [
        1.0,
        0.0,
        0.0,
        0.0,
        0.0,
        2.220446049250313e-16,
        -1.0,
        0.0,
        0.0,
        1.0,
        2.220446049250313e-16,
        0.0,
        0.0,
        0.0,
        0.0,
        1.0
      ],
      "name": "Sketchfab_model"
    },
    {
      "children": [
        2
      ],
      "matrix": [
        0.009999999776482582,
        0.0,
        0.0,
        0.0,
        0.0,
        0.0,
        0.009999999776482582,
        0.0,
        0.0,
        -0.009999999776482582,
        0.0,
        0.0,
        0.0,
        0.0,
        0.0,
        1.0
      ],
      "name": "Knuckles.fbx"
    },
    {
      "children": [
        3,
        35,
        38
      ],
      "name": "RootNode"
    },
    {
      "children": [
        4
      ],
      "matrix": [
        100.0,
        0.0,
        0.0,
        0.0,
        0.0,
        -1.629206793918314e-05,
        -99.99999999999868,
        0.0,
        0.0,
        99.99999999999868,
        -1.629206793918314e-05,
        0.0,
        0.0,
        92.1597900390625,
        -38.757904052734375,
        1.0
      ],
      "name": "Armature"
    },
    {
      "children": [
        5,
        33,
        34,
        32
      ],
      "name": "Object_4"
    },
    {
      "children": [
        6
      ],
      "name": "_rootJoint"
    },
    {
      "children": [
        7,
        22,
        27
      ],
      "name": "Hip_00",
      "rotation": [
        0.6092075109481812,
        0.0,
        0.0,
        0.7930108904838562
      ],
      "translation": [
        0.0,
        -5.551115123125783e-17,
        0.1271369457244873
      ]
    },
    {
      "children": [
        8
      ],
      "name": "Spine_01",
      "rotation": [
        0.12558616697788239,
        0.0,
        0.0,
        0.9920827150344849
      ],
      "scale": [
        1.0,
        0.9999999403953552,
        1.0
      ],
      "translation": [
        0.0,
        0.4629277288913727,
        7.450580596923828e-09
      ]
    },
    {
      "children": [
        9
      ],
      "name": "Chest_02",
      "rotation": [
        0.11824920028448105,
        0.0,
        0.0,
        0.9929839372634888
      ],
      "scale": [
        1.0,
        0.9999999403953552,
        1.0
      ],
      "translation": [
        0.0,
        0.528722882270813,
        9.313225746154785e-10
      ]
    },
    {
      "children": [
        10,
        12,
        17
      ],
      "name": "Neck_03",
      "rotation": [
        -0.11386028677225113,
        -0.0,
        0.0,
        0.9934967756271362
      ],
      "translation": [
        0.0,
        0.548021674156189,
        -3.057504471826178e-08
      ]
    },
    {
      "children": [
        11
      ],
      "name": "Head_04",
      "rotation": [
        7.450578820566989e-09,
        0.0,
        0.0,
        1.0
      ],
      "scale": [
        1.0,
        0.9999999403953552,
        1.0
      ],
      "translation": [
        0.0,
        0.33350038528442383,
        5.551115123125783e-17
      ]
    },
    {
      "name": "Head_end_023",
      "translation": [
        0.0,
        1.5585181713104248,
        0.0
      ]
    },
    {
      "children": [
        13
      ],
      "name": "Shoulder.L_05",
      "rotation": [
        -0.16247045993804932,
        0.16247037053108215,
        -0.6881884932518005,
        0.6881884336471558
      ],
      "translation": [
        0.7769878506660461,
        0.4893019199371338,
        0.2422802448272705
      ]
    },
    {
      "children": [
        14
      ],
      "name": "Upper arm.L_06",
      "rotation": [
        0.22976788878440857,
        1.7384195416525472e-08,
        -1.6174510619748617e-08,
        0.9732455611228943
      ],
      "translation": [
        0.11231023073196411,
        0.6677611470222473,
        0.06302441656589508
      ]
    },
    {
      "children": [
        15
      ],
      "name": "Lower arm.L_07",
      "rotation": [
        1.0259854724683915e-23,
        -0.7071067690849304,
        1.025985393582301e-23,
        0.7071068286895752
      ],
      "scale": [
        0.9999999403953552,
        0.9999998211860657,
        0.9999999403953552
      ],
      "translation": [
        1.11394493629291e-09,
        0.7550207376480103,
        -5.551115123125783e-17
      ]
    },
    {
      "children": [
        16
      ],
      "name": "Hand.L_08",
      "rotation": [
        -2.220446049250313e-16,
        1.610356292758297e-08,
        -6.350458082495791e-24,
        1.0
      ],
      "translation": [
        7.105427357601002e-15,
        0.8034787178039551,
        2.3688978956215578e-07
      ]
    },
    {
      "name": "Hand.L_end_024",
      "rotation": [
        5.337493627015068e-24,
        -0.0,
        -6.617444900424222e-24,
        1.0
      ],
      "translation": [
        0.0,
        0.47015929222106934,
        0.0
      ]
    },
    {
      "children": [
        18
      ],
      "name": "Shoulder.R_09",
      "rotation": [
        -0.6881884932518005,
        0.6881884932518005,
        -0.16247032582759857,
        0.16247031092643738
      ],
      "scale": [
        1.0,
        1.0,
        0.9999998807907104
      ],
      "translation": [
        -0.7769878506660461,
        0.4893019199371338,
        0.2422802448272705
      ]
    },
    {
      "children": [
        19
      ],
      "name": "Upper arm.R_010",
      "rotation": [
        -0.16247045993804932,
        0.688188374042511,
        -0.16247037053108215,
        0.6881885528564453
      ],
      "scale": [
        1.0,
        0.9999999403953552,
        1.0
      ],
      "translation": [
        0.11231014877557755,
        0.6677611470222473,
        -0.06302449852228165
      ]
    },
    {
      "children": [
        20
      ],
      "name": "Lower arm.R_011",
      "rotation": [
        4.83685617854037e-16,
        -0.7071067690849304,
        4.836855649144778e-16,
        0.7071068286895752
      ],
      "scale": [
        0.9999999403953552,
        0.9999998211860657,
        1.0
      ],
      "translation": [
        7.882583474838611e-15,
        0.7550206184387207,
        3.55451703626386e-08
      ]
    },
    {
      "children": [
        21
      ],
      "name": "Hand.R_012",
      "rotation": [
        3.4270415179987485e-15,
        2.6544894282665155e-08,
        2.458874706594966e-16,
        1.0
      ],
      "translation": [
        -1.8963565651120007e-07,
        0.8034787178039551,
        7.771561172376096e-15
      ]
    },
    {
      "name": "Hand.R_end_021",
      "rotation": [
        -0.0,
        1.3234889800848443e-23,
        1.3572913543292025e-23,
        1.0
      ],
      "translation": [
        0.0,
        0.47015929222106934,
        5.551115123125783e-17
      ]
    },
    {
      "children": [
        23
      ],
      "name": "Upper leg.L_013",
      "rotation": [
        0.9996708631515503,
        -0.007513877470046282,
        -0.00018492138769943267,
        -0.02452998422086239
      ],
      "scale": [
        0.9999964237213135,
        0.9999998807907104,
        0.9999644756317139
      ],
      "translation": [
        0.7975509762763977,
        -0.0145207978785038,
        0.11925246566534042
      ]
    },
    {
      "children": [
        24
      ],
      "name": "Lower leg.L_014",
      "rotation": [
        0.3184683322906494,
        -0.000767375051509589,
        -0.012221066281199455,
        0.9478543996810913
      ],
      "scale": [
        1.0,
        0.9999999403953552,
        0.9999998807907104
      ],
      "translation": [
        2.89292074739933e-08,
        0.33217915892601013,
        4.7330104280263186e-09
      ]
    },
    {
      "children": [
        25
      ],
      "name": "Foot.L_015",
      "rotation": [
        -0.003640909679234028,
        0.7123974561691284,
        -0.7017571926116943,
        0.0036666218657046556
      ],
      "scale": [
        0.9999999403953552,
        0.9999995231628418,
        0.9999998807907104
      ],
      "translation": [
        -4.198227543383837e-09,
        0.5091493129730225,
        1.9332219380885363e-08
      ]
    },
    {
      "children": [
        26
      ],
      "name": "Toe.L_016",
      "rotation": [
        0.22392360866069794,
        5.323873324414308e-07,
        -1.2220503720072884e-07,
        0.9746068120002747
      ],
      "scale": [
        1.0,
        0.9999998807907104,
        1.0
      ],
      "translation": [
        -4.806634024134837e-08,
        0.5035378932952881,
        -9.329596650786698e-09
      ]
    },
    {
      "name": "Toe.L_end_022",
      "rotation": [
        8.470329472543003e-22,
        1.449543550619683e-20,
        -1.3552527156068805e-20,
        1.0
      ],
      "translation": [
        0.0,
        0.32906535267829895,
        0.0
      ]
    },
    {
      "children": [
        28
      ],
      "name": "Upper leg.R_017",
      "rotation": [
        0.9996708631515503,
        0.007514183409512043,
        0.00018511118832975626,
        -0.024529986083507538
      ],
      "scale": [
        0.9999964237213135,
        0.9999998807907104,
        0.9999644756317139
      ],
      "translation": [
        -0.7975509762763977,
        -0.0145207978785038,
        0.11925246566534042
      ]
    },
    {
      "children": [
        29
      ],
      "name": "Lower leg.R_018",
      "rotation": [
        0.3184669017791748,
        0.0008757909527048469,
        0.012257608585059643,
        0.9478543400764465
      ],
      "scale": [
        0.9999999403953552,
        0.9999999403953552,
        0.9999998211860657
      ],
      "translation": [
        2.35741026699543e-08,
        0.3321791887283325,
        1.0273652151226997e-08
      ]
    },
    {
      "children": [
        30
      ],
      "name": "Foot.R_019",
      "rotation": [
        0.003720649750903249,
        0.7123979330062866,
        -0.7017567157745361,
        -0.0035843122750520706
      ],
      "scale": [
        1.0,
        0.9999997615814209,
        1.0
      ],
      "translation": [
        -2.7284841053187847e-08,
        0.5091493129730225,
        2.5371264200657606e-08
      ]
    },
    {
      "children": [
        31
      ],
      "name": "Toe.R_020",
      "rotation": [
        0.22392360866069794,
        3.9815139984966663e-07,
        -9.119833066506544e-08,
        0.9746066927909851
      ],
      "scale": [
        1.0,
        0.9999999403953552,
        1.0
      ],
      "translation": [
        5.450033313536551e-08,
        0.5035378932952881,
        -7.03930709278211e-08
      ]
    },
    {
      "name": "Toe.R_end_025",
      "rotation": [
        -2.117582368135751e-22,
        3.9333989090545e-20,
        2.0328790734103208e-20,
        1.0
      ],
      "translation": [
        -1.1102230246251565e-16,
        0.32906535267829895,
        -6.938893903907228e-18
      ]
    },
    {
      "matrix": [
        13.932858407497406,
        0.0,
        0.0,
        0.0,
        0.0,
        13.93285984865193,
        -1.2809974236915854e-06,
        0.0,
        0.0,
        1.2809974312253995e-06,
        13.932859930593995,
        0.0,
        -0.0027909112759516574,
        221.24059312702957,
        0.6208398225899145,
        1.0
      ],
      "name": "Object_32"
    },
    {
      "mesh": 0,
      "name": "Object_33",
      "skin": 0
    },
    {
      "mesh": 1,
      "name": "Object_34",
      "skin": 0
    },
    {
      "children": [
        36
      ],
      "matrix": [
        -41.33245800319762,
        72.85001718163046,
        -54.63060417064825,
        0.0,
        -43.9542954599816,
        -68.50456186733918,
        -58.095997400686194,
        0.0,
        -79.74740012082239,
        -6.558437648518378e-06,
        60.335331058753724,
        0.0,
        -599.5887451171875,
        -376.7727355957031,
        -546.5508422851563,
        1.0
      ],
      "name": "Hemi"
    },
    {
      "children": [
        37
      ],
      "matrix": [
        1.0,
        0.0,
        0.0,
        0.0,
        0.0,
        2.220446049250313e-16,
        1.0,
        0.0,
        0.0,
        -1.0,
        2.220446049250313e-16,
        0.0,
        0.0,
        0.0,
        0.0,
        1.0
      ],
      "name": "Object_36"
    },
    {
      "name": "Object_37"
    },
    {
      "children": [
        39
      ],
      "matrix": [
        43.530070025280786,
        -77.57095223892283,
        45.69332962633501,
        0.0,
        53.505346027335186,
        63.10901178711881,
        56.16431765586071,
        0.0,
        -72.40380480395541,
        7.323164108452573e-06,
        68.9760034353301,
        0.0,
        741.07177734375,
        1412.060302734375,
        816.1729736328125,
        1.0
      ],
      "name": "Sun"
    },
    {
      "children": [
        40
      ],
      "matrix": [
        1.0,
        0.0,
        0.0,
        0.0,
        0.0,
        2.220446049250313e-16,
        1.0,
        0.0,
        0.0,
        -1.0,
        2.220446049250313e-16,
        0.0,
        0.0,
        0.0,
        0.0,
        1.0
      ],
      "name": "Object_39"
    },
    {
      "name": "Object_40"
    }
  ],
  "samplers": [
    {
      "magFilter": 9729,
      "minFilter": 9987,
      "wrapS": 10497,
      "wrapT": 10497
    }
  ],
  "scene": 0,
  "scenes": [
    {
      "name": "Sketchfab_Scene",
      "nodes": [
        0
      ]
    }
  ],
  "skins": [
    {
      "inverseBindMatrices": 8,
      "joints": [
        5,
        6,
        7,
        8,
        9,
        10,
        11,
        12,
        13,
        14,
        15,
        16,
        17,
        18,
        19,
        20,
        21,
        22,
        23,
        24,
        25,
        26,
        27,
        28,
        29,
        30,
        31
      ],
      "skeleton": 5
    }
  ],
  "textures": [
    {
      "sampler": 0,
      "source": 0
    },
    {
      "sampler": 0,
      "source": 1
    }
  ]
}
